<svg xmlns="http://www.w3.org/2000/svg" width="63" height="84" viewBox="0 0 63 84" fill="none">
    <path d="M26.1798 28.5081C26.0804 30.4478 26.0616 32.3874 26.191 34.3248C26.1123 36.2213 26.086 38.1157 26.206 40.0122C26.0503 41.913 26.0916 43.8138 26.1835 45.7146C26.1667 47.5831 26.1498 49.4516 26.1329 51.3222C21.8859 51.3373 17.6389 51.3567 13.3918 51.3653C9.64381 51.3718 5.89579 51.3503 2.14776 51.3826C1.53059 51.3891 1.38052 51.1908 1.38239 50.4947C1.40303 41.594 1.39552 32.6934 1.39552 23.7927C1.39552 23.3315 1.29048 22.8941 1.96392 22.8962C10.0227 22.9328 18.0797 22.9372 26.1385 22.9501C26.1535 24.8035 26.1667 26.6547 26.1817 28.5081H26.1798ZM17.9071 32.8917C19.2315 31.3895 20.4302 31.1201 21.7714 32.9154C20.8372 30.9456 21.2687 29.6353 22.9833 28.6806C21.0267 29.1482 20.0831 28.2517 19.8937 26.0492C19.6761 28.2862 18.6575 29.0685 16.7609 28.6008C18.2391 29.6525 19.2052 30.7753 17.9071 32.8917ZM13.8083 33.355C13.5457 34.1007 13.4462 35.0597 12.9754 35.536C12.4727 36.0468 11.576 35.5748 10.6493 35.8248C12.1369 36.7493 13.1686 37.7536 11.923 39.5962C12.0675 39.6458 12.1256 39.6846 12.1819 39.6803C12.2719 39.676 12.4032 39.6824 12.4464 39.6199C13.5475 38.0726 14.5399 38.7838 15.5247 39.7988C15.5416 39.8161 15.611 39.7686 15.6973 39.7342C15.6223 39.4217 15.5941 39.0876 15.4685 38.8139C15.0164 37.8334 15.1214 37.0984 16.0462 36.5726C16.3464 36.4023 16.6915 36.1825 16.8454 35.5726C15.067 36.1136 14.0765 35.3916 13.8083 33.3529V33.355ZM19.8899 39.635C19.7042 40.2471 19.5185 40.7061 19.4285 41.191C19.284 41.9733 18.907 42.2406 18.2316 42.1393C17.8039 42.0746 17.3631 42.1263 16.6915 42.1263C17.4475 42.8203 18.1641 43.1974 18.4642 43.8332C18.8 44.5422 18.1697 45.3181 17.999 46.1413C18.7982 46.1155 19.2446 45.0336 19.843 45.0896C20.4658 45.1478 21.0398 45.8655 21.9797 46.5422C20.8466 44.4948 21.2574 43.1565 22.9533 42.2901C22.1129 42.1544 21.2349 42.3806 20.7641 41.9798C20.282 41.5682 20.1994 40.5402 19.8918 39.6329L19.8899 39.635ZM10.8556 28.7258C8.91972 29.2323 8.04556 28.2603 7.75854 26.1677C7.60097 28.4176 6.58236 29.1288 4.72523 28.728C6.28409 29.7279 7.00256 30.9154 5.87327 32.8335C6.63301 32.3917 7.22767 31.5878 7.79043 31.6158C8.42073 31.6482 9.02102 32.4326 9.93458 33.1136C8.8203 31.1223 9.02289 29.715 10.8556 28.7258ZM4.72898 42.2944C6.57111 43.2621 6.62175 44.6608 5.84138 46.3353C5.82825 46.3633 5.87515 46.428 5.90141 46.4969C6.21469 46.2448 6.5561 46.0422 6.81872 45.7491C7.4659 45.0293 8.06619 45.0487 8.7115 45.7491C8.89533 45.9495 9.15608 46.3202 9.41683 46.0831C9.66257 45.859 9.44872 45.4776 9.32679 45.1995C8.94223 44.3224 9.07917 43.6802 9.86142 43.1802C10.1709 42.9841 10.5349 42.7492 10.7806 42.0962C8.80904 42.8203 8.03805 41.6953 7.75104 39.6609C7.51093 41.7729 6.69116 42.7793 4.72711 42.2966L4.72898 42.2944Z" fill="white"/>
    <path d="M31.98 57.0635C41.881 57.0635 51.7819 57.0786 61.6829 57.0398C62.5552 57.0355 62.8084 57.3178 62.7446 58.2876C62.6715 59.3932 62.6771 60.516 62.7446 61.6216C62.7972 62.503 62.5796 62.7616 61.7804 62.7595C52.7536 62.725 43.7287 62.7379 34.702 62.7379C23.9587 62.7379 13.2136 62.7228 2.47041 62.7681C1.53059 62.7724 1.30361 62.4642 1.37677 61.4599C1.45555 60.391 1.4443 59.3048 1.37677 58.2337C1.31861 57.3264 1.50808 57.0312 2.37286 57.0376C10.0565 57.085 17.7402 57.0635 25.4219 57.0635C27.6073 57.0635 29.7946 57.0635 31.98 57.0635Z" fill="white"/>
    <path d="M26.206 40.0122C26.0841 38.1178 26.1104 36.2213 26.191 34.3248C38.118 34.3205 50.0449 34.3248 61.9718 34.2968C62.6208 34.2968 62.7521 34.5576 62.7315 35.2235C62.694 36.4778 62.6752 37.7385 62.739 38.9885C62.784 39.8527 62.527 40.0553 61.7992 40.051C54.9297 40.0186 48.062 40.0316 41.1925 40.0273C36.197 40.0251 31.2015 40.0165 26.206 40.0122Z" fill="white"/>
    <path d="M26.1798 28.5081C26.1648 26.6547 26.1516 24.8035 26.1366 22.9501C30.5694 22.9328 35.0002 22.907 39.4329 22.9027C46.8633 22.8941 54.2937 22.9199 61.7241 22.8747C62.5852 22.8704 62.7822 23.1591 62.7334 24.0772C62.6658 25.3272 62.7015 26.5879 62.7259 27.8422C62.7352 28.3465 62.6002 28.5857 62.1443 28.5168C62.0524 28.5038 61.9568 28.5168 61.863 28.5168C49.9679 28.5146 38.0729 28.5125 26.1798 28.5103V28.5081Z" fill="white"/>
    <path d="M26.1329 51.3201C26.1498 49.4516 26.1667 47.5831 26.1835 45.7125C38.1067 45.7082 50.0298 45.7125 61.953 45.6866C62.557 45.6866 62.7653 45.8504 62.7371 46.5702C62.6865 47.859 62.6827 49.1542 62.7371 50.4408C62.7709 51.2145 62.5364 51.3847 61.8967 51.3804C56.466 51.3524 51.0353 51.3653 45.6028 51.3653C39.4536 51.3653 33.3044 51.3653 27.1552 51.3632C26.8138 51.3632 26.4705 51.333 26.1291 51.3179L26.1329 51.3201Z" fill="white"/>
    <path d="M40.2865 0.000221211C45.3533 0.0347031 48.9043 4.17469 48.8724 10.0151C48.8405 15.7089 45.2163 19.8252 40.2658 19.7864C35.1353 19.7476 31.5017 15.5882 31.5298 9.78877C31.558 3.96564 35.1353 -0.0342607 40.2865 0.000221211ZM44.7605 9.78877C44.8017 8.37286 44.5129 6.93324 43.6049 5.73715C42.3124 4.03676 40.6523 3.67254 38.8439 4.23719C37.1256 4.77166 36.1501 6.18326 35.7356 8.14657C35.0021 11.6099 36.6154 15.974 40.6429 15.6162C43.0984 15.3986 44.753 13.2391 44.7605 9.79093V9.78877Z" fill="white"/>
    <path d="M51.1216 73.0265C51.1216 76.5264 51.1047 79.7116 51.1348 82.8969C51.1423 83.5952 51.0578 83.9615 50.3506 83.8796C49.3677 83.7654 48.047 84.3516 47.4861 83.6447C46.9984 83.0284 47.3342 81.5349 47.3323 80.4293C47.3267 76.0156 47.3436 71.6041 47.3154 67.1904C47.3117 66.4512 47.4974 66.3025 48.1371 66.2076C50.1818 65.9016 51.5868 66.5999 52.7555 68.7076C54.3425 71.5696 56.2766 74.1794 58.0662 76.9014C58.3851 76.7009 58.2369 76.3798 58.2369 76.132C58.25 73.1536 58.265 70.1752 58.2312 67.199C58.2219 66.4576 58.3888 66.1753 59.0585 66.227C59.867 66.2895 60.6812 66.2615 61.4934 66.2335C61.9549 66.2184 62.1631 66.3585 62.1612 66.9533C62.1425 72.3713 62.1425 77.7893 62.1537 83.2072C62.1537 83.7288 62.0055 83.9357 61.5609 83.8689C61.469 83.8559 61.3715 83.8516 61.2814 83.8689C59.0004 84.3732 57.5015 83.3818 56.2653 81.0737C54.8021 78.3388 52.9637 75.8691 51.1216 73.0265Z" fill="white"/>
    <path d="M45.2238 83.8689C43.8619 83.8689 42.6839 83.8473 41.5058 83.8796C41.08 83.8904 40.9205 83.6275 40.7386 83.2633C39.9319 81.6491 39.1047 80.05 38.2793 78.4487C38.0167 77.938 36.0263 77.5414 35.6643 77.9272C35.4767 78.1276 35.5649 78.4013 35.563 78.6405C35.5555 80.1103 35.5292 81.5823 35.5724 83.0499C35.593 83.7288 35.3998 83.9184 34.8295 83.8818C33.9891 83.8301 33.145 83.8452 32.3027 83.8753C31.8318 83.8926 31.6499 83.7417 31.6518 83.1555C31.6686 77.7785 31.6593 72.3993 31.6555 67.0223C31.6555 66.6107 31.6311 66.2206 32.1582 66.2378C34.8989 66.3283 37.6546 65.99 40.3821 66.4232C42.3762 66.7421 43.9145 67.9835 44.4772 70.2808C45.0081 72.4553 44.7774 74.5523 43.241 76.2225C43.1285 76.3453 43.0103 76.4682 42.8808 76.563C42.5244 76.8281 41.8378 77.1341 41.8622 77.3238C41.9316 77.8496 42.2881 78.3302 42.545 78.8194C43.3986 80.4358 44.2596 82.0499 45.2257 83.8667L45.2238 83.8689ZM37.6677 69.8714C37.1331 69.8714 36.6923 69.9188 36.2608 69.8606C35.6587 69.7787 35.518 70.0653 35.5461 70.7076C35.5911 71.7075 35.563 72.714 35.5555 73.7182C35.5536 74.076 35.5817 74.3626 35.9926 74.3411C37.1425 74.2786 38.3018 74.4855 39.4442 74.1967C40.4497 73.9424 40.9374 73.2894 40.9599 72.2075C40.9824 71.089 40.4722 70.311 39.5249 69.992C38.8796 69.7744 38.2211 69.9274 37.6696 69.8735L37.6677 69.8714Z" fill="white"/>
    <path d="M16.6596 9.90084C16.6596 7.06686 16.6953 4.23288 16.639 1.40105C16.6221 0.515295 16.8697 0.325644 17.5826 0.353661C20.0456 0.448486 22.5162 0.23944 24.9773 0.474348C27.8793 0.752358 30.0422 3.18549 30.1192 6.2005C30.2148 9.90946 28.4384 12.4266 25.3769 13.0301C24.1613 13.2693 22.9439 13.2521 21.7358 13.1766C20.8335 13.1206 20.6609 13.487 20.7059 14.4223C20.7735 15.8533 20.7022 17.2907 20.7341 18.7261C20.7453 19.2907 20.5915 19.4803 20.0981 19.4588C19.194 19.42 18.286 19.4092 17.3837 19.461C16.8078 19.4954 16.639 19.2885 16.6465 18.6205C16.6784 15.7154 16.6596 12.8103 16.6615 9.90515L16.6596 9.90084ZM20.6966 6.78238C20.6966 7.39013 20.7266 7.99787 20.6872 8.60346C20.6515 9.16164 20.8147 9.3556 21.31 9.32973C22.1785 9.28448 23.0508 9.34482 23.9193 9.29741C25.2362 9.22413 25.9641 8.45907 26.0485 7.13367C26.1441 5.64232 25.5232 4.70916 24.1951 4.43761C23.7411 4.34494 23.2665 4.37296 22.8013 4.3708C21.3944 4.36649 20.6922 5.17107 20.6947 6.78454L20.6966 6.78238Z" fill="white"/>
    <path d="M29.9672 83.8689C29.5676 83.8689 29.1568 83.8064 28.7629 83.8796C26.9039 84.2288 25.5776 83.6943 25.2775 81.2827C25.2118 80.7483 24.9173 80.55 24.4164 80.5608C22.8238 80.5974 21.2312 80.5931 19.6386 80.5586C19.1527 80.5478 18.937 80.7267 18.7756 81.2633C18.5149 82.1297 18.5018 83.3279 17.8621 83.7503C17.2712 84.1404 16.3426 83.8646 15.5641 83.8667C14.0071 83.8732 14.0296 83.8796 14.5868 82.2439C16.2751 77.2785 17.9653 72.3131 19.6048 67.324C19.8805 66.4835 20.222 66.1408 21.0098 66.2206C21.8465 66.3046 22.6944 66.2529 23.5385 66.2314C23.9212 66.2206 24.167 66.3133 24.3227 66.7788C26.2023 72.3885 28.0988 77.9897 29.986 83.5952C30.0066 83.6534 29.9785 83.7331 29.9672 83.8667V83.8689ZM23.8649 76.7699C23.2647 74.8626 22.7019 73.0739 22.0603 71.0394C21.4525 72.9424 20.931 74.5717 20.4114 76.2009C20.2839 76.604 20.3833 76.785 20.7866 76.7764C21.7771 76.7548 22.7694 76.7699 23.8649 76.7699Z" fill="white"/>
    <path d="M1.39552 75.0221C1.39552 72.4036 1.41241 69.7852 1.38615 67.1667C1.38052 66.5158 1.46493 66.2141 2.13463 66.2249C5.288 66.268 8.44137 66.2594 11.5947 66.2292C12.1688 66.2249 12.3263 66.4167 12.3338 67.0762C12.3676 70.0136 12.3864 70.0136 9.8708 70.0136C8.49764 70.0136 7.12262 70.0308 5.74947 70.0071C5.31614 70.0007 5.17169 70.1386 5.14731 70.6666C5.04038 73.0696 5.0235 73.0696 7.12074 73.0696C8.33819 73.0696 9.55565 73.0868 10.7731 73.0609C11.2158 73.0523 11.3434 73.2247 11.3696 73.7355C11.5216 76.8044 11.5328 76.8044 8.84656 76.8087C7.8167 76.8087 6.78496 76.8238 5.75509 76.8001C5.32551 76.7893 5.17357 76.9358 5.14543 77.4639C5.00849 80.1771 4.99348 80.175 7.32521 80.175C8.82405 80.175 10.3229 80.1944 11.8217 80.1642C12.3151 80.1534 12.5196 80.2612 12.5327 80.9099C12.5946 83.8732 12.6152 83.8732 10.0152 83.8732C7.39275 83.8732 4.77025 83.8495 2.14776 83.8904C1.52496 83.899 1.36926 83.6835 1.37864 82.9917C1.41241 80.3366 1.39177 77.6815 1.39365 75.0286L1.39552 75.0221Z" fill="white"/>
    <path d="M50.9603 9.91808C50.9603 7.01298 50.9791 4.10788 50.9472 1.20278C50.9397 0.541156 51.1029 0.34504 51.6788 0.349351C55.1435 0.377367 58.6083 0.375212 62.0731 0.349351C62.6096 0.34504 62.784 0.532536 62.7503 1.14243C62.709 1.89242 62.694 2.65317 62.754 3.401C62.8178 4.21564 62.6208 4.50442 61.8573 4.48072C59.8295 4.41391 57.7998 4.48072 55.7701 4.44408C55.1717 4.4333 54.9147 4.6014 54.9803 5.33199C55.0647 6.28455 54.6464 7.51297 55.1473 8.12502C55.6144 8.69829 56.6836 8.26941 57.4865 8.2845C58.6102 8.30821 59.7357 8.31683 60.8575 8.27588C61.3508 8.25864 61.5178 8.4332 61.4972 9C61.4634 9.89438 61.4521 10.7952 61.4972 11.6896C61.5291 12.3081 61.2852 12.3792 60.8406 12.3749C59.1861 12.3534 57.5297 12.418 55.8789 12.3447C55.1379 12.3124 55.0047 12.5991 55.0272 13.3706C55.0779 15.0904 55.0047 16.8145 55.0591 18.5343C55.0835 19.3166 54.8565 19.5127 54.2168 19.4631C53.4083 19.4006 52.5923 19.4006 51.7838 19.4631C51.1441 19.5105 50.9303 19.3079 50.9415 18.5299C50.9828 15.6615 50.9584 12.7909 50.9584 9.92239L50.9603 9.91808Z" fill="white"/>
    <path d="M7.88048 0.364436C9.8783 0.364436 11.878 0.392453 13.8758 0.347195C14.5249 0.33211 14.8719 0.439866 14.7725 1.31484C14.6581 2.33206 15.1514 3.70703 14.5774 4.28891C14.0803 4.79321 12.9154 4.44408 12.045 4.45054C10.6043 4.4606 9.88455 5.29966 9.8858 6.96772C9.8858 10.806 9.86142 14.6443 9.90644 18.4825C9.91582 19.3187 9.70197 19.517 9.02289 19.4588C8.21626 19.3898 7.3965 19.3855 6.58986 19.4588C5.92768 19.5191 5.82263 19.2045 5.8245 18.5407C5.84326 14.2369 5.80949 9.93101 5.85264 5.62724C5.86202 4.69407 5.68006 4.36003 4.8284 4.4333C3.74226 4.52597 2.64299 4.4333 1.55122 4.46563C1.06724 4.48071 0.80462 4.39882 0.842137 3.72642C0.902166 2.65533 0.534491 1.26312 0.994084 0.590724C1.47619 -0.10969 2.74429 0.407539 3.66535 0.377367C5.06852 0.33211 6.47543 0.364436 7.88048 0.364436Z" fill="white"/>
</svg>