<svg xmlns="http://www.w3.org/2000/svg" width="245" height="290" viewBox="0 0 245 290" fill="none">
    <path d="M100.375 98.421C99.9825 105.117 99.9084 111.813 100.419 118.502C100.108 125.05 100.005 131.59 100.479 138.137C99.8639 144.7 100.027 151.262 100.39 157.824C100.323 164.275 100.257 170.726 100.19 177.184C83.4201 177.236 66.6504 177.303 49.8806 177.333C35.0812 177.355 20.2817 177.281 5.4823 177.392C3.04536 177.415 2.45279 176.73 2.46019 174.327C2.54167 143.598 2.51204 112.87 2.51204 82.1416C2.51204 80.5494 2.09724 79.039 4.7564 79.0464C36.5774 79.1729 68.3911 79.1878 100.212 79.2325C100.271 85.6311 100.323 92.0223 100.382 98.421H100.375ZM67.7096 113.555C72.939 108.369 77.6722 107.439 82.9683 113.636C79.2795 106.836 80.9832 102.312 87.7533 99.0162C80.0276 100.631 76.3019 97.5356 75.5537 89.9316C74.6945 97.6546 70.6724 100.355 63.1838 98.7409C69.0207 102.372 72.8353 106.248 67.7096 113.555ZM51.525 115.154C50.488 117.729 50.0954 121.039 48.2363 122.684C46.2511 124.447 42.7105 122.818 39.0514 123.681C44.9253 126.873 48.9992 130.34 44.0809 136.701C44.6512 136.872 44.8808 137.006 45.103 136.991C45.4586 136.977 45.9771 136.999 46.1474 136.783C50.4954 131.441 54.4138 133.896 58.3025 137.401C58.3692 137.46 58.6433 137.297 58.984 137.177C58.6877 136.099 58.5766 134.945 58.0803 134C56.2952 130.615 56.71 128.078 60.3617 126.263C61.5469 125.675 62.9098 124.916 63.5172 122.81C56.4952 124.678 52.5842 122.185 51.525 115.147V115.154ZM75.5389 136.835C74.8056 138.948 74.0723 140.533 73.7168 142.207C73.1464 144.908 71.6576 145.831 68.991 145.481C67.3022 145.258 65.5615 145.436 62.9098 145.436C65.8948 147.832 68.7244 149.134 69.9095 151.329C71.2354 153.777 68.7466 156.455 68.0725 159.297C71.228 159.208 72.9909 155.473 75.3538 155.667C77.8129 155.867 80.0795 158.345 83.7905 160.681C79.3166 153.613 80.9387 148.993 87.6348 146.002C84.3164 145.533 80.8498 146.314 78.9907 144.93C77.087 143.509 76.7611 139.96 75.5463 136.828L75.5389 136.835ZM39.8662 99.1724C32.222 100.921 28.7703 97.5653 27.637 90.3408C27.0148 98.1085 22.9928 100.564 15.6597 99.1799C21.815 102.632 24.652 106.732 20.1929 113.354C23.1927 111.828 25.5408 109.053 27.7629 109.15C30.2517 109.261 32.622 111.97 36.2293 114.321C31.8295 107.446 32.6294 102.588 39.8662 99.1724ZM15.6745 146.017C22.9483 149.357 23.1483 154.186 20.0669 159.967C20.0151 160.064 20.2003 160.287 20.304 160.525C21.541 159.655 22.8891 158.955 23.9261 157.943C26.4815 155.458 28.8518 155.525 31.3998 157.943C32.1257 158.635 33.1553 159.915 34.1849 159.097C35.1553 158.323 34.3108 157.006 33.8294 156.046C32.3109 153.018 32.8516 150.801 35.9404 149.074C37.1626 148.397 38.5996 147.586 39.5699 145.332C31.785 147.832 28.7407 143.948 27.6074 136.924C26.6593 144.216 23.4224 147.691 15.6671 146.024L15.6745 146.017Z" fill="#182F54"/>
    <path d="M123.278 197.005C162.373 197.005 201.468 197.057 240.562 196.923C244.007 196.908 245.007 197.883 244.755 201.231C244.466 205.048 244.488 208.924 244.755 212.741C244.962 215.784 244.103 216.677 240.948 216.67C205.304 216.551 169.669 216.595 134.026 216.595C91.605 216.595 49.177 216.543 6.75633 216.699C3.04536 216.714 2.14909 215.65 2.43797 212.183C2.74907 208.493 2.70463 204.743 2.43797 201.045C2.20835 197.913 2.95647 196.893 6.37116 196.916C36.7108 197.079 67.0504 197.005 97.3825 197.005C106.012 197.005 114.649 197.005 123.278 197.005Z" fill="#BE2531"/>
    <path d="M100.479 138.137C99.9973 131.597 100.101 125.05 100.419 118.502C147.514 118.487 194.609 118.502 241.703 118.406C244.266 118.406 244.784 119.306 244.703 121.605C244.555 125.935 244.481 130.288 244.733 134.603C244.91 137.587 243.896 138.286 241.022 138.271C213.897 138.16 186.779 138.204 159.654 138.189C139.929 138.182 120.204 138.152 100.479 138.137Z" fill="#BE2531"/>
    <path d="M100.375 98.421C100.316 92.0223 100.264 85.6311 100.205 79.2325C117.708 79.1729 135.203 79.0836 152.706 79.0688C182.046 79.039 211.386 79.1283 240.725 78.972C244.125 78.9572 244.903 79.9542 244.71 83.1237C244.444 87.4391 244.584 91.7917 244.681 96.1219C244.718 97.863 244.184 98.6888 242.385 98.4507C242.022 98.4061 241.644 98.4507 241.273 98.4507C194.305 98.4433 147.336 98.4358 100.375 98.4284V98.421Z" fill="#BE2531"/>
    <path d="M100.19 177.176C100.257 170.726 100.323 164.275 100.39 157.817C147.47 157.802 194.549 157.817 241.629 157.728C244.014 157.728 244.836 158.293 244.725 160.778C244.525 165.227 244.51 169.699 244.725 174.141C244.859 176.812 243.933 177.4 241.407 177.385C219.963 177.288 198.52 177.333 177.068 177.333C152.788 177.333 128.507 177.333 104.227 177.325C102.879 177.325 101.523 177.221 100.175 177.169L100.19 177.176Z" fill="#BE2531"/>
    <path d="M156.077 0.000763704C176.083 0.119808 190.105 14.4126 189.979 34.5758C189.853 54.2331 175.543 68.444 155.995 68.3101C135.737 68.1762 121.389 53.8164 121.5 33.7946C121.611 13.6909 135.737 -0.118281 156.077 0.000763704ZM173.743 33.7946C173.906 28.9063 172.765 23.9362 169.18 19.8068C164.076 13.9364 157.521 12.679 150.381 14.6284C143.596 16.4736 139.744 21.347 138.107 28.1251C135.211 40.0816 141.581 55.1482 157.484 53.9131C167.18 53.1617 173.713 45.7065 173.743 33.802V33.7946Z" fill="#182F54"/>
    <path d="M198.86 252.115C198.86 264.198 198.794 275.195 198.912 286.192C198.942 288.602 198.608 289.867 195.816 289.584C191.935 289.19 186.72 291.214 184.505 288.773C182.579 286.646 183.905 281.489 183.898 277.673C183.876 262.435 183.942 247.205 183.831 231.967C183.816 229.415 184.55 228.901 187.075 228.574C195.149 227.517 200.697 229.928 205.312 237.205C211.578 247.085 219.215 256.096 226.281 265.493C227.541 264.801 226.955 263.692 226.955 262.837C227.007 252.554 227.067 242.272 226.933 231.997C226.896 229.437 227.555 228.462 230.2 228.641C233.392 228.857 236.607 228.76 239.814 228.663C241.636 228.611 242.459 229.095 242.451 231.148C242.377 249.853 242.377 268.558 242.422 287.263C242.422 289.064 241.836 289.778 240.081 289.547C239.718 289.503 239.333 289.488 238.977 289.547C229.97 291.288 224.052 287.866 219.171 279.897C213.393 270.455 206.134 261.929 198.86 252.115Z" fill="#BE2531"/>
    <path d="M175.572 289.547C170.195 289.547 165.543 289.473 160.891 289.584C159.21 289.622 158.58 288.714 157.862 287.457C154.677 281.884 151.41 276.363 148.151 270.835C147.114 269.072 139.255 267.703 137.825 269.034C137.085 269.726 137.433 270.671 137.426 271.497C137.396 276.571 137.292 281.653 137.463 286.72C137.544 289.064 136.781 289.718 134.529 289.592C131.211 289.413 127.878 289.465 124.552 289.57C122.693 289.629 121.974 289.108 121.982 287.085C122.048 268.521 122.011 249.95 121.996 231.386C121.996 229.965 121.9 228.619 123.982 228.678C134.803 228.991 145.684 227.823 156.454 229.318C164.328 230.419 170.402 234.705 172.624 242.636C174.72 250.143 173.809 257.383 167.743 263.149C167.298 263.573 166.832 263.997 166.321 264.325C164.913 265.24 162.202 266.296 162.299 266.951C162.573 268.767 163.98 270.426 164.995 272.115C168.365 277.695 171.765 283.268 175.58 289.54L175.572 289.547ZM145.736 241.223C143.625 241.223 141.885 241.386 140.181 241.185C137.803 240.903 137.248 241.892 137.359 244.109C137.537 247.562 137.426 251.036 137.396 254.503C137.388 255.739 137.5 256.728 139.122 256.654C143.662 256.438 148.24 257.152 152.751 256.155C156.721 255.277 158.647 253.023 158.736 249.288C158.825 245.426 156.81 242.74 153.069 241.639C150.521 240.888 147.921 241.416 145.744 241.23L145.736 241.223Z" fill="#BE2531"/>
    <path d="M62.7839 34.1815C62.7839 24.3975 62.9246 14.6135 62.7024 4.83696C62.6357 1.77899 63.6135 1.12425 66.4282 1.22097C76.1537 1.54834 85.9089 0.826636 95.6271 1.63763C107.086 2.59743 115.626 10.9975 115.93 21.4065C116.308 34.2112 109.293 42.9015 97.2048 44.9848C92.405 45.8107 87.5977 45.7511 82.8276 45.4907C79.2647 45.2973 78.5833 46.5621 78.761 49.7912C79.0277 54.7316 78.7462 59.6942 78.8721 64.6495C78.9166 66.5988 78.3092 67.2536 76.3611 67.1792C72.7909 67.0452 69.2058 67.008 65.643 67.1866C63.369 67.3057 62.7024 66.5914 62.732 64.2849C62.8579 54.2554 62.7839 44.2259 62.7913 34.1964L62.7839 34.1815ZM78.724 23.4154C78.724 25.5135 78.8425 27.6117 78.687 29.7024C78.5462 31.6295 79.1907 32.2991 81.1461 32.2098C84.5756 32.0536 88.0199 32.2619 91.4494 32.0982C96.6493 31.8452 99.5232 29.2039 99.8565 24.6281C100.234 19.4795 97.7825 16.2578 92.5383 15.3203C90.7458 15.0004 88.8718 15.0971 87.0348 15.0897C81.4795 15.0748 78.7067 17.8525 78.7166 23.4228L78.724 23.4154Z" fill="#182F54"/>
    <path d="M115.33 289.547C113.752 289.547 112.13 289.331 110.575 289.584C103.234 290.79 97.9973 288.945 96.8122 280.619C96.553 278.774 95.39 278.089 93.4123 278.126C87.1237 278.253 80.835 278.238 74.5464 278.119C72.6279 278.082 71.7761 278.699 71.1391 280.552C70.1095 283.543 70.0577 287.68 67.5318 289.138C65.1986 290.485 61.5321 289.532 58.4581 289.54C52.3102 289.562 52.3991 289.584 54.599 283.937C61.2654 266.795 67.9392 249.652 74.413 232.428C75.5019 229.526 76.85 228.343 79.961 228.619C83.2646 228.909 86.6126 228.73 89.9458 228.656C91.4569 228.619 92.4272 228.939 93.042 230.546C100.464 249.913 107.953 269.25 115.404 288.602C115.486 288.803 115.374 289.079 115.33 289.54V289.547ZM91.2346 265.039C88.8644 258.454 86.6422 252.279 84.109 245.255C81.7091 251.825 79.6499 257.45 77.5981 263.075C77.0944 264.466 77.487 265.091 79.0795 265.061C82.9905 264.987 86.9089 265.039 91.2346 265.039Z" fill="#BE2531"/>
    <path d="M2.51204 259.005C2.51204 249.965 2.57871 240.925 2.47501 231.885C2.45279 229.638 2.78611 228.596 5.43045 228.634C17.8818 228.782 30.3332 228.753 42.7846 228.648C45.0512 228.634 45.6734 229.296 45.703 231.572C45.8363 241.714 45.9104 241.714 35.9775 241.714C30.5554 241.714 25.126 241.773 19.704 241.691C17.9929 241.669 17.4226 242.145 17.3263 243.968C16.9041 252.264 16.8374 252.264 25.1186 252.264C29.9258 252.264 34.7331 252.323 39.5403 252.234C41.2884 252.204 41.792 252.8 41.8958 254.563C42.4957 265.158 42.5402 265.158 31.9332 265.173C27.8666 265.173 23.7927 265.225 19.7262 265.143C18.03 265.106 17.43 265.612 17.3189 267.435C16.7782 276.802 16.7189 276.795 25.926 276.795C31.8443 276.795 37.7626 276.862 43.6809 276.757C45.6289 276.72 46.4363 277.092 46.4882 279.332C46.7326 289.562 46.8141 289.562 36.5478 289.562C26.1926 289.562 15.8375 289.48 5.4823 289.622C3.02313 289.651 2.40834 288.907 2.44538 286.519C2.57871 277.353 2.49723 268.186 2.50464 259.027L2.51204 259.005Z" fill="#BE2531"/>
    <path d="M198.223 34.241C198.223 24.2115 198.297 14.182 198.171 4.15245C198.142 1.86828 198.786 1.19121 201.06 1.20609C214.741 1.30282 228.422 1.29537 242.103 1.20609C244.222 1.19121 244.91 1.83852 244.777 3.94412C244.614 6.53334 244.555 9.15977 244.792 11.7415C245.044 14.554 244.266 15.551 241.251 15.4691C233.244 15.2385 225.23 15.4691 217.215 15.3427C214.852 15.3054 213.837 15.8858 214.097 18.4081C214.43 21.6967 212.778 25.9376 214.756 28.0507C216.6 30.0298 220.822 28.5492 223.993 28.6013C228.43 28.6831 232.874 28.7129 237.303 28.5715C239.251 28.512 239.911 29.1146 239.829 31.0714C239.696 34.1592 239.651 37.2692 239.829 40.3569C239.955 42.4923 238.992 42.7378 237.237 42.7229C230.703 42.6485 224.163 42.8717 217.645 42.6188C214.719 42.5072 214.193 43.4967 214.282 46.1603C214.482 52.0977 214.193 58.0499 214.408 63.9873C214.504 66.6881 213.608 67.3652 211.082 67.1941C207.89 66.9783 204.667 66.9783 201.475 67.1941C198.949 67.3577 198.105 66.6584 198.149 63.9724C198.312 54.0694 198.216 44.1589 198.216 34.2559L198.223 34.241Z" fill="#182F54"/>
    <path d="M28.1185 1.25817C36.0071 1.25817 43.9031 1.3549 51.7917 1.19865C54.3545 1.14657 55.7249 1.51858 55.3323 4.53934C54.8804 8.05116 56.8285 12.7981 54.5619 14.8069C52.5991 16.548 47.9992 15.3426 44.5623 15.365C38.8736 15.3997 36.0318 18.2964 36.0367 24.0552C36.0367 37.3064 35.9404 50.5576 36.1182 63.8087C36.1552 66.6956 35.3108 67.3801 32.6294 67.1792C29.4444 66.9411 26.2074 66.9262 23.0224 67.1792C20.4077 67.3875 19.9929 66.3012 20.0003 64.0096C20.0743 49.1513 19.941 34.2856 20.1114 19.4274C20.1484 16.2057 19.4299 15.0525 16.0671 15.3054C11.7784 15.6254 7.43778 15.3054 3.12683 15.4171C1.21579 15.4691 0.178797 15.1864 0.32694 12.865C0.563968 9.16721 -0.88783 4.36078 0.926917 2.0394C2.83055 -0.378691 7.83777 1.40698 11.4747 1.30282C17.0152 1.14657 22.5705 1.25817 28.1185 1.25817Z" fill="#182F54"/>
</svg>